<?xml version="1.0" encoding="UTF-8" standalone="no"?>
<!DOCTYPE svg PUBLIC "-//W3C//DTD SVG 1.1//EN" "http://www.w3.org/Graphics/SVG/1.1/DTD/svg11.dtd">
<svg width="100%" height="100%" viewBox="0 0 810 810" version="1.1" xmlns="http://www.w3.org/2000/svg" xmlns:xlink="http://www.w3.org/1999/xlink" xml:space="preserve" xmlns:serif="http://www.serif.com/" style="fill-rule:evenodd;clip-rule:evenodd;stroke-linejoin:round;stroke-miterlimit:2;">
    <g transform="matrix(1,0,0,1,810,810)">
        <path d="M-810,0C-729.3,-82.8 -648.6,-165.7 -604.2,-250.3C-559.8,-334.9 -551.8,-421.2 -511.9,-511.9C-472.1,-602.7 -400.6,-697.9 -310,-748.3C-219.4,-798.8 -109.7,-804.4 0,-810L0,0L-810,0Z" style="fill:rgb(41,48,61);fill-rule:nonzero;"/>
        <path d="M-648,0C-583.4,-66.3 -518.9,-132.6 -483.4,-200.2C-447.9,-267.9 -441.4,-336.9 -409.6,-409.6C-377.7,-482.2 -320.5,-558.3 -248,-598.7C-175.5,-639 -87.7,-643.5 0,-648L0,0L-648,0Z" style="fill:rgb(49,62,81);fill-rule:nonzero;"/>
        <path d="M-486,0C-437.6,-49.7 -389.2,-99.4 -362.5,-150.2C-335.9,-200.9 -331.1,-252.7 -307.2,-307.2C-283.3,-361.6 -240.4,-418.8 -186,-449C-131.6,-479.3 -65.8,-482.6 0,-486L0,0L-486,0Z" style="fill:rgb(58,76,102);fill-rule:nonzero;"/>
        <path d="M-324,0C-291.7,-33.1 -259.4,-66.3 -241.7,-100.1C-223.9,-133.9 -220.7,-168.5 -204.8,-204.8C-188.9,-241.1 -160.2,-279.2 -124,-299.3C-87.7,-319.5 -43.9,-321.8 0,-324L0,0L-324,0Z" style="fill:rgb(65,91,124);fill-rule:nonzero;"/>
        <path d="M-162,0C-145.9,-16.6 -129.7,-33.1 -120.8,-50.1C-112,-67 -110.4,-84.2 -102.4,-102.4C-94.4,-120.5 -80.1,-139.6 -62,-149.7C-43.9,-159.8 -21.9,-160.9 0,-162L0,0L-162,0Z" style="fill:rgb(69,99,135);fill-rule:nonzero;"/>
    </g>
</svg>
