<?xml version="1.0" encoding="UTF-8" standalone="no"?>
<!DOCTYPE svg PUBLIC "-//W3C//DTD SVG 1.1//EN" "http://www.w3.org/Graphics/SVG/1.1/DTD/svg11.dtd">
<svg width="100%" height="100%" viewBox="0 0 812 810" version="1.1" xmlns="http://www.w3.org/2000/svg" xmlns:xlink="http://www.w3.org/1999/xlink" xml:space="preserve" xmlns:serif="http://www.serif.com/" style="fill-rule:evenodd;clip-rule:evenodd;stroke-linejoin:round;stroke-miterlimit:2;">
    <g>
        <path d="M810,0C813,120.4 816.1,240.8 748.3,310C680.6,379.1 542.2,397 461.7,461.7C381.3,526.5 358.9,638.1 291.6,704C224.3,769.9 112.2,789.9 0,810L0,0L810,0Z" style="fill:rgb(41,48,61);fill-rule:nonzero;"/>
        <path d="M648,0C650.4,96.3 652.8,192.7 598.7,248C544.5,303.3 433.7,317.6 369.4,369.4C305,421.2 287.1,510.5 233.3,563.2C179.5,615.9 89.7,631.9 0,648L0,0L648,0Z" style="fill:rgb(49,62,81);fill-rule:nonzero;"/>
        <path d="M486,0C487.8,72.2 489.6,144.5 449,186C408.4,227.5 325.3,238.2 277,277C228.8,315.9 215.3,382.9 175,422.4C134.6,461.9 67.3,474 0,486L0,0L486,0Z" style="fill:rgb(58,76,102);fill-rule:nonzero;"/>
        <path d="M324,0C325.2,48.2 326.4,96.3 299.3,124C272.3,151.6 216.9,158.8 184.7,184.7C152.5,210.6 143.6,255.3 116.6,281.6C89.7,307.9 44.9,316 0,324L0,0L324,0Z" style="fill:rgb(65,91,124);fill-rule:nonzero;"/>
        <path d="M162,0C162.6,24.1 163.2,48.2 149.7,62C136.1,75.8 108.4,79.4 92.3,92.3C76.3,105.3 71.8,127.6 58.3,140.8C44.9,154 22.4,158 0,162L0,0L162,0Z" style="fill:rgb(69,99,135);fill-rule:nonzero;"/>
    </g>
</svg>
