<?xml version="1.0" encoding="UTF-8" standalone="no"?>
<!DOCTYPE svg PUBLIC "-//W3C//DTD SVG 1.1//EN" "http://www.w3.org/Graphics/SVG/1.1/DTD/svg11.dtd">
<svg width="100%" height="100%" viewBox="0 0 459 459" version="1.1" xmlns="http://www.w3.org/2000/svg" xmlns:xlink="http://www.w3.org/1999/xlink" xml:space="preserve" xmlns:serif="http://www.serif.com/" style="fill-rule:evenodd;clip-rule:evenodd;stroke-linejoin:round;stroke-miterlimit:2;">
    <g transform="matrix(1,0,0,1,459,0)">
        <path d="M0,459C-47,420.1 -94,381.3 -150.8,364C-207.5,346.8 -274,351.1 -323.1,323.1C-372.3,295.2 -404.3,234.9 -424.1,175.7C-443.8,116.4 -451.4,58.2 -459,0L0,0L0,459Z" style="fill:rgb(229,233,241);fill-rule:nonzero;"/>
    </g>
    <g transform="matrix(1,0,0,1,459,0)">
        <path d="M0,367.2C-37.6,336.1 -75.2,305 -120.6,291.2C-166,277.4 -219.2,280.9 -258.5,258.5C-297.9,236.1 -323.4,187.9 -339.2,140.5C-355.1,93.1 -361.1,46.6 -367.2,0L0,0L0,367.2Z" style="fill:rgb(201,212,227);fill-rule:nonzero;"/>
    </g>
    <g transform="matrix(1,0,0,1,459,0)">
        <path d="M0,275.4C-28.2,252.1 -56.4,228.8 -90.5,218.4C-124.5,208.1 -164.4,210.7 -193.9,193.9C-223.4,177.1 -242.6,140.9 -254.4,105.4C-266.3,69.8 -270.8,34.9 -275.4,0L0,0L0,275.4Z" style="fill:rgb(173,191,214);fill-rule:nonzero;"/>
    </g>
    <g transform="matrix(1,0,0,1,459,0)">
        <path d="M0,183.6C-18.8,168.1 -37.6,152.5 -60.3,145.6C-83,138.7 -109.6,140.4 -129.3,129.3C-148.9,118.1 -161.7,94 -169.6,70.3C-177.5,46.6 -180.6,23.3 -183.6,0L0,0L0,183.6Z" style="fill:rgb(144,171,200);fill-rule:nonzero;"/>
    </g>
    <g transform="matrix(1,0,0,1,459,0)">
        <path d="M0,91.8C-9.4,84 -18.8,76.3 -30.2,72.8C-41.5,69.4 -54.8,70.2 -64.6,64.6C-74.5,59 -80.9,47 -84.8,35.1C-88.8,23.3 -90.3,11.6 -91.8,0L0,0L0,91.8Z" style="fill:rgb(129,161,193);fill-rule:nonzero;"/>
    </g>
</svg>
