<?xml version="1.0" encoding="UTF-8" standalone="no"?>
<!DOCTYPE svg PUBLIC "-//W3C//DTD SVG 1.1//EN" "http://www.w3.org/Graphics/SVG/1.1/DTD/svg11.dtd">
<svg width="100%" height="100%" viewBox="0 0 5000 200" version="1.1" xmlns="http://www.w3.org/2000/svg" xmlns:xlink="http://www.w3.org/1999/xlink" xml:space="preserve" xmlns:serif="http://www.serif.com/" style="fill-rule:evenodd;clip-rule:evenodd;stroke-linejoin:round;stroke-miterlimit:2;">
    <path d="M0,55L83.3,48.5C166.7,42 333.3,29 500,30.3C666.7,31.7 833.3,47.3 1000,52.7C1166.7,58 1333.3,53 1500,53.8C1666.7,54.7 1833.3,61.3 2000,63.3C2166.7,65.3 2333.3,62.7 2500,57.2C2666.7,51.7 2833.3,43.3 3000,38C3166.7,32.7 3333.3,30.3 3500,34.5C3666.7,38.7 3833.3,49.3 4000,51C4166.7,52.7 4333.3,45.3 4500,42.8C4666.7,40.3 4833.3,42.7 4916.7,43.8L5000,45L5000,201L0,201L0,55Z" style="fill:rgb(113,136,165);fill-rule:nonzero;"/>
    <path d="M0,68L83.3,70.8C166.7,73.7 333.3,79.3 500,81C666.7,82.7 833.3,80.3 1000,75.3C1166.7,70.3 1333.3,62.7 1500,59.3C1666.7,56 1833.3,57 2000,62.2C2166.7,67.3 2333.3,76.7 2500,82.5C2666.7,88.3 2833.3,90.7 3000,93C3166.7,95.3 3333.3,97.7 3500,91C3666.7,84.3 3833.3,68.7 4000,68.3C4166.7,68 4333.3,83 4500,87.3C4666.7,91.7 4833.3,85.3 4916.7,82.2L5000,79L5000,201L0,201L0,68Z" style="fill:rgb(84,111,145);fill-rule:nonzero;"/>
    <path d="M0,148L83.3,146.5C166.7,145 333.3,142 500,135C666.7,128 833.3,117 1000,118.5C1166.7,120 1333.3,134 1500,137.3C1666.7,140.7 1833.3,133.3 2000,125C2166.7,116.7 2333.3,107.3 2500,105.8C2666.7,104.3 2833.3,110.7 3000,113.5C3166.7,116.3 3333.3,115.7 3500,119.5C3666.7,123.3 3833.3,131.7 4000,134C4166.7,136.3 4333.3,132.7 4500,130.8C4666.7,129 4833.3,129 4916.7,129L5000,129L5000,201L0,201L0,148Z" style="fill:rgb(62,90,123);fill-rule:nonzero;"/>
    <path d="M0,143L83.3,149.3C166.7,155.7 333.3,168.3 500,172.3C666.7,176.3 833.3,171.7 1000,167C1166.7,162.3 1333.3,157.7 1500,156.7C1666.7,155.7 1833.3,158.3 2000,158.3C2166.7,158.3 2333.3,155.7 2500,152.3C2666.7,149 2833.3,145 3000,149.8C3166.7,154.7 3333.3,168.3 3500,167.2C3666.7,166 3833.3,150 4000,149.2C4166.7,148.3 4333.3,162.7 4500,170.5C4666.7,178.3 4833.3,179.7 4916.7,180.3L5000,181L5000,201L0,201L0,143Z" style="fill:rgb(50,73,99);fill-rule:nonzero;"/>
</svg>
